<?xml version="1.0" standalone="no"?>
<!DOCTYPE svg PUBLIC "-//W3C//DTD SVG 20010904//EN"
 "http://www.w3.org/TR/2001/REC-SVG-20010904/DTD/svg10.dtd">
<svg version="1.0" xmlns="http://www.w3.org/2000/svg"
 width="736.000000pt" height="736.000000pt" viewBox="0 0 736.000000 736.000000"
 preserveAspectRatio="xMidYMid meet">
<metadata>
Created by potrace 1.14, written by Peter Selinger 2001-2017
</metadata>
<g transform="translate(0.000000,736.000000) scale(0.100000,-0.100000)"
fill="#000000" stroke="none">
<path d="M5175 6320 c-183 -29 -379 -125 -524 -256 -68 -61 -162 -187 -208
-277 -19 -38 -99 -250 -178 -471 -79 -220 -170 -475 -203 -566 -33 -91 -117
-322 -187 -515 -70 -192 -155 -433 -190 -535 -34 -102 -79 -230 -99 -285 -20
-55 -125 -347 -233 -650 -108 -302 -199 -553 -202 -557 -3 -4 -48 109 -100
250 -52 141 -122 334 -156 427 -35 94 -125 339 -200 545 -75 206 -155 423
-177 482 -39 106 -42 134 -14 157 10 8 92 12 260 12 l246 0 0 389 0 390 -980
0 -980 0 0 -389 0 -389 288 -1 287 -1 12 -27 c7 -16 96 -255 197 -533 199
-547 697 -1908 829 -2268 45 -122 86 -221 91 -219 5 2 24 46 42 98 17 52 217
612 444 1244 227 633 425 1188 442 1235 40 114 43 119 55 84 16 -44 603 -1649
690 -1884 41 -113 120 -329 175 -480 84 -232 118 -315 118 -289 0 2 27 83 61
179 33 96 96 276 139 400 43 124 105 302 138 396 l60 170 -123 335 c-67 183
-220 602 -339 929 -120 327 -288 778 -373 1001 l-155 407 112 313 c183 512
210 580 259 663 92 157 264 309 437 387 188 86 430 107 629 55 105 -27 235
-84 310 -136 208 -143 359 -369 409 -614 21 -98 21 -285 0 -383 -8 -42 -68
-224 -133 -404 l-117 -328 -13 86 c-29 202 -157 384 -331 473 -130 66 -319 83
-455 40 -313 -98 -497 -408 -430 -724 36 -170 171 -345 325 -420 234 -114 507
-76 694 95 96 89 137 161 215 387 38 108 113 318 166 467 111 310 131 404 121
570 -15 254 -112 471 -290 651 -131 132 -280 217 -464 265 -89 24 -301 33
-397 19z"/>
</g>
</svg>
